<svg width="17" height="17" viewBox="0 0 17 17" fill="none" xmlns="http://www.w3.org/2000/svg">
<path d="M2.12497 14.8749H4.78121L12.6153 7.04077L9.9591 4.38453L2.12497 12.2187V14.8749ZM3.54163 12.8066L9.9591 6.38911L10.6108 7.04077L4.19329 13.4582H3.54163V12.8066ZM13.012 2.33037C12.9465 2.26471 12.8686 2.21261 12.783 2.17707C12.6973 2.14152 12.6054 2.12323 12.5126 2.12323C12.4199 2.12323 12.328 2.14152 12.2423 2.17707C12.1566 2.21261 12.0788 2.26471 12.0133 2.33037L10.717 3.62662L13.3733 6.28286L14.6695 4.98661C14.7352 4.92108 14.7873 4.84325 14.8228 4.75756C14.8584 4.67187 14.8766 4.58001 14.8766 4.48724C14.8766 4.39447 14.8584 4.30261 14.8228 4.21692C14.7873 4.13123 14.7352 4.0534 14.6695 3.98787L13.012 2.33037Z" fill="white"/>
</svg>
