<svg width="17" height="16" viewBox="0 0 17 16" fill="none" xmlns="http://www.w3.org/2000/svg">
<path d="M1.06061 15.1824C0.866561 15.1712 0.678715 15.11 0.515376 15.0046C0.352037 14.8993 0.21877 14.7534 0.128557 14.5812C0.0383438 14.4091 -0.00574162 14.2165 0.000599036 14.0222C0.00693969 13.8279 0.0634947 13.6386 0.164742 13.4727L8.04504 0.539797C8.15115 0.365646 8.30259 0.223601 8.48317 0.128848C8.66376 0.0340944 8.8667 -0.00980672 9.0703 0.0018357C9.2739 0.0134781 9.47051 0.0802292 9.63912 0.19495C9.80772 0.309671 9.94198 0.468051 10.0276 0.653163L16.377 14.4027C16.4587 14.579 16.4933 14.7736 16.4775 14.9674C16.4616 15.1611 16.3958 15.3475 16.2864 15.5082C16.177 15.6689 16.0278 15.7985 15.8534 15.8844C15.679 15.9702 15.4853 16.0094 15.2912 15.9981L1.06061 15.1824Z" fill="#EC5865"/>
<path d="M8.79787 9.98226C8.77005 10.0694 8.71408 10.1448 8.63875 10.1967C8.56343 10.2486 8.473 10.274 8.38167 10.269C8.29034 10.2639 8.20327 10.2287 8.13414 10.1688C8.06501 10.1089 8.01772 10.0277 7.9997 9.93802C7.19048 5.75363 7.24578 6.04765 7.24578 6.00433C7.24451 5.81535 7.282 5.62812 7.35594 5.4542C7.42987 5.28028 7.53868 5.12335 7.67564 4.99314C7.8126 4.86292 7.9748 4.76217 8.15223 4.6971C8.32966 4.63203 8.51854 4.60402 8.70722 4.61481C8.89589 4.6256 9.08035 4.67497 9.2492 4.75985C9.41805 4.84473 9.5677 4.96333 9.68892 5.10832C9.81013 5.2533 9.90034 5.42161 9.95395 5.60283C10.0076 5.78405 10.0235 5.97433 10.0007 6.16193C9.99236 6.20433 10.0818 5.91584 8.79787 9.98226Z" fill="#FFFDFC"/>
<path d="M9.32434 12.3307C9.31214 12.5434 9.23713 12.7478 9.10878 12.9179C8.98044 13.088 8.80453 13.2163 8.6033 13.2864C8.40207 13.3565 8.18456 13.3654 7.97828 13.312C7.77199 13.2585 7.5862 13.145 7.4444 12.9859C7.3026 12.8269 7.21116 12.6293 7.18164 12.4183C7.15211 12.2072 7.18583 11.9922 7.27854 11.8003C7.37125 11.6084 7.51878 11.4483 7.70247 11.3403C7.88616 11.2323 8.09776 11.1811 8.31051 11.1933C8.59576 11.2097 8.86282 11.3388 9.05295 11.5521C9.24308 11.7654 9.3407 12.0454 9.32434 12.3307Z" fill="#FFFDFC"/>
</svg>
