<svg width="12" height="11" viewBox="0 0 12 11" fill="none" xmlns="http://www.w3.org/2000/svg">
<path d="M0.729167 10.4379C0.59576 10.4302 0.466616 10.3881 0.354321 10.3157C0.242025 10.2432 0.150404 10.1429 0.0883827 10.0246C0.0263613 9.90622 -0.00394736 9.77381 0.000411837 9.64025C0.00477103 9.5067 0.0436526 9.37654 0.11326 9.26248L5.53096 0.37111C5.60391 0.251381 5.70803 0.153725 5.83218 0.0885827C5.95633 0.0234399 6.09585 -0.00674212 6.23583 0.00126205C6.3758 0.00926621 6.51097 0.0551576 6.62689 0.134028C6.7428 0.212899 6.83511 0.321785 6.89394 0.449049L11.2591 9.90183C11.3154 10.0231 11.3392 10.1569 11.3283 10.2901C11.3173 10.4233 11.2721 10.5514 11.1969 10.6619C11.1217 10.7724 11.0191 10.8615 10.8992 10.9205C10.7793 10.9795 10.6461 11.0065 10.5127 10.9987L0.729167 10.4379Z" fill="#EC5865"/>
<path d="M6.04856 6.86279C6.02943 6.9227 5.99096 6.97456 5.93917 7.01024C5.88738 7.04591 5.82521 7.06338 5.76242 7.0599C5.69963 7.05642 5.63977 7.03219 5.59225 6.99101C5.54472 6.94983 5.51221 6.89403 5.49982 6.83238C4.94348 3.95561 4.9815 4.15775 4.9815 4.12797C4.98063 3.99804 5.0064 3.86932 5.05723 3.74975C5.10806 3.63018 5.18287 3.5223 5.27703 3.43277C5.37118 3.34325 5.4827 3.27398 5.60468 3.22924C5.72667 3.18451 5.85652 3.16525 5.98624 3.17267C6.11595 3.18009 6.24277 3.21403 6.35885 3.27239C6.47493 3.33074 6.57782 3.41228 6.66116 3.51196C6.74449 3.61164 6.80651 3.72735 6.84337 3.85193C6.88023 3.97652 6.89115 4.10734 6.87547 4.23632C6.86977 4.26547 6.93123 4.06713 6.04856 6.86279Z" fill="#FFFDFC"/>
<path d="M6.4103 8.47734C6.40191 8.62361 6.35034 8.7641 6.26211 8.88106C6.17387 8.99801 6.05293 9.08618 5.91458 9.1344C5.77624 9.18262 5.6267 9.18873 5.48488 9.15196C5.34306 9.11519 5.21533 9.03719 5.11784 8.92783C5.02035 8.81846 4.95749 8.68265 4.93719 8.53755C4.91689 8.39246 4.94008 8.2446 5.00381 8.11268C5.06755 7.98077 5.16898 7.87071 5.29526 7.79644C5.42155 7.72217 5.56702 7.68701 5.71329 7.69541C5.9094 7.70669 6.09301 7.7954 6.22372 7.94204C6.35443 8.08867 6.42155 8.28122 6.4103 8.47734Z" fill="#FFFDFC"/>
</svg>
