<svg width="17" height="17" viewBox="0 0 17 17" fill="none" xmlns="http://www.w3.org/2000/svg">
<g clip-path="url(#clip0_12_26)">
<path d="M11.4219 2.92188H5.57817V14.0781H11.4219V2.92188Z" fill="#EBF7F7"/>
<path d="M5.57797 2.92188H1.85924C0.982679 2.92188 0.265494 3.55938 0.265494 4.4625V12.5375C0.265494 13.4406 0.982679 14.0781 1.85924 14.0781H5.57797V2.92188Z" fill="#589F58"/>
<path d="M15.1403 2.92188H11.4216V14.0781H15.1403C16.0169 14.0781 16.7341 13.4406 16.7341 12.5375V4.4625C16.7341 3.55938 16.0169 2.92188 15.1403 2.92188Z" fill="#589F58"/>
<path d="M15.1403 2.92188H11.4216V10.9172L15.0872 14.0781C15.9637 14.0781 16.7341 13.4406 16.7341 12.5375V4.4625C16.7341 3.55938 16.0169 2.92188 15.1403 2.92188Z" fill="#479347"/>
<path d="M11.4219 10.9172V2.92188H5.57817V6.0828L11.4219 10.9172Z" fill="#E2F2F1"/>
<path d="M5.57821 2.92188H1.85947L5.57821 6.0828V2.92188Z" fill="#479347"/>
<path d="M11.4216 14.0781H15.1403C16.0169 14.0781 16.7341 13.5468 16.7341 12.4843H11.4216V14.0781Z" fill="#398439"/>
<path d="M11.4219 12.4843H5.57817V14.0781H11.4219V12.4843Z" fill="#D6EAE8"/>
<path d="M0.265494 12.4843C0.265494 13.5468 0.982679 14.0781 1.85924 14.0781H5.57797V12.4843H0.265494Z" fill="#398439"/>
<path d="M15.1403 2.92188H11.4216V5.73749L16.7341 7.38436V4.4625C16.7341 3.55938 16.0169 2.92188 15.1403 2.92188Z" fill="#398439"/>
<path d="M11.4219 5.73749V2.92188H5.57817V4.01094L11.4219 5.73749Z" fill="#D6EAE8"/>
<path d="M5.57821 2.92188H1.85947L5.57821 4.01094V2.92188Z" fill="#398439"/>
</g>
<defs>
<clipPath id="clip0_12_26">
<rect width="16.383" height="16.383" fill="white" transform="scale(1.03766)"/>
</clipPath>
</defs>
</svg>
