<svg width="6" height="10" viewBox="0 0 6 10" fill="none" xmlns="http://www.w3.org/2000/svg">
<path d="M0.913044 10C1.16304 10 1.36413 9.91305 1.53804 9.73913L5.63044 5.75C5.86413 5.51631 5.96739 5.28804 5.97283 5C5.97283 4.71739 5.86413 4.47826 5.63044 4.25L1.54348 0.255435C1.36413 0.0869565 1.15761 0 0.913044 0C0.413044 0 0 0.402174 0 0.902174C0 1.15217 0.108696 1.38044 0.293478 1.57065L3.84239 5.00544L0.293478 8.42935C0.103261 8.61957 0 8.84783 0 9.09783C0 9.59239 0.413044 10 0.913044 10Z" fill="#ABABAB"/>
</svg>
