<svg width="8" height="14" viewBox="0 0 8 14" fill="none" xmlns="http://www.w3.org/2000/svg">
<path d="M1.22293 13.394C1.55778 13.394 1.82712 13.2775 2.06005 13.0446L7.5414 7.70155C7.85441 7.38853 7.99272 7.0828 8 6.697C8 6.31847 7.85441 5.99818 7.5414 5.69245L2.06733 0.342129C1.82712 0.11647 1.5505 0 1.22293 0C0.55323 0 0 0.538671 0 1.20837C0 1.54322 0.145587 1.84895 0.393085 2.10373L5.1465 6.70428L0.393085 11.2903C0.138308 11.545 0 11.8508 0 12.1856C0 12.848 0.55323 13.394 1.22293 13.394Z" fill="#ABABAB"/>
</svg>
