<svg width="14" height="11" viewBox="0 0 14 11" fill="none" xmlns="http://www.w3.org/2000/svg">
<path opacity="0.4" d="M1.74606 4.3102H11.8085" stroke="#0601B4" stroke-width="0.682625" stroke-linecap="round" stroke-linejoin="round"/>
<path opacity="0.4" fill-rule="evenodd" clip-rule="evenodd" d="M6.7775 5.75737C6.58789 5.75737 6.43418 5.91108 6.43418 6.10069C6.43418 6.2903 6.58789 6.44401 6.7775 6.44401H6.78274C6.97235 6.44401 7.12606 6.2903 7.12606 6.10069C7.12606 5.91108 6.97235 5.75737 6.78274 5.75737H6.7775ZM9.28302 5.75737C9.09341 5.75737 8.9397 5.91108 8.9397 6.10069C8.9397 6.2903 9.09341 6.44401 9.28302 6.44401H9.28826C9.47787 6.44401 9.63158 6.2903 9.63158 6.10069C9.63158 5.91108 9.47787 5.75737 9.28826 5.75737H9.28302ZM3.92391 6.10092C3.92391 5.91131 4.07762 5.7576 4.26724 5.7576H4.27247C4.46209 5.7576 4.6158 5.91131 4.6158 6.10092C4.6158 6.29053 4.46209 6.44425 4.27247 6.44425H4.26724C4.07762 6.44425 3.92391 6.29053 3.92391 6.10092ZM9.28302 7.53861C9.09341 7.53861 8.9397 7.69232 8.9397 7.88193C8.9397 8.07154 9.09341 8.22526 9.28302 8.22526H9.28826C9.47787 8.22526 9.63158 8.07154 9.63158 7.88193C9.63158 7.69232 9.47787 7.53861 9.28826 7.53861H9.28302ZM6.43418 7.88193C6.43418 7.69232 6.58789 7.53861 6.7775 7.53861H6.78274C6.97235 7.53861 7.12606 7.69232 7.12606 7.88193C7.12606 8.07154 6.97235 8.22526 6.78274 8.22526H6.7775C6.58789 8.22526 6.43418 8.07154 6.43418 7.88193ZM4.26692 7.53861C4.07731 7.53861 3.9236 7.69232 3.9236 7.88193C3.9236 8.07154 4.07731 8.22526 4.26692 8.22526H4.27216C4.46177 8.22526 4.61548 8.07154 4.61548 7.88193C4.61548 7.69232 4.46177 7.53861 4.27216 7.53861H4.26692Z" fill="#0601B4"/>
<path d="M9.0576 0.916665V2.42494" stroke="#0601B4" stroke-width="0.682625" stroke-linecap="round" stroke-linejoin="round"/>
<path d="M4.49698 0.916665V2.42494" stroke="#0601B4" stroke-width="0.682625" stroke-linecap="round" stroke-linejoin="round"/>
<path fill-rule="evenodd" clip-rule="evenodd" d="M9.16758 1.64049H4.38742C2.72952 1.64049 1.694 2.3903 1.694 3.76855V7.9163C1.694 9.31622 2.72952 10.0834 4.38742 10.0834H9.16235C10.8255 10.0834 11.8558 9.32923 11.8558 7.95098V3.76855C11.861 2.3903 10.8307 1.64049 9.16758 1.64049Z" stroke="#0601B4" stroke-width="0.682625" stroke-linecap="round" stroke-linejoin="round"/>
</svg>
